<svg width="115" height="120" viewBox="0 0 115 120" fill="none" xmlns="http://www.w3.org/2000/svg">
<path d="M57.4999 31.875C54.3014 31.875 51.1747 32.8647 48.5153 34.7189C45.8558 36.5732 43.783 39.2087 42.559 42.2922C41.335 45.3757 41.0147 48.7687 41.6387 52.0422C42.2627 55.3156 43.803 58.3224 46.0646 60.6824C48.3263 63.0424 51.2079 64.6496 54.3449 65.3008C57.4819 65.9519 60.7336 65.6177 63.6886 64.3405C66.6436 63.0632 69.1693 60.9003 70.9463 58.1252C72.7233 55.3502 73.6718 52.0876 73.6718 48.75C73.6669 44.276 71.9616 39.9867 68.9298 36.8231C65.898 33.6596 61.7874 31.88 57.4999 31.875ZM57.4999 61.875C55.0122 61.875 52.5803 61.1052 50.5118 59.663C48.4434 58.2208 46.8312 56.171 45.8792 53.7727C44.9272 51.3744 44.6781 48.7354 45.1634 46.1894C45.6488 43.6434 46.8467 41.3048 48.6058 39.4692C50.3649 37.6337 52.6061 36.3836 55.046 35.8772C57.4859 35.3708 60.015 35.6307 62.3133 36.6241C64.6117 37.6175 66.5761 39.2997 67.9582 41.4581C69.3403 43.6165 70.078 46.1541 70.078 48.75C70.0743 52.2298 68.7479 55.5659 66.3898 58.0265C64.0318 60.487 60.8347 61.8711 57.4999 61.875ZM57.4999 9.375C47.4956 9.38682 37.9043 13.539 30.8302 20.9207C23.756 28.3024 19.7768 38.3107 19.7655 48.75C19.7655 63.0084 26.1313 78.1842 38.1751 92.6367C43.6273 99.2093 49.7631 105.129 56.4694 110.286C56.7714 110.507 57.1312 110.625 57.4999 110.625C57.8686 110.625 58.2283 110.507 58.5304 110.286C65.2366 105.129 71.3724 99.2093 76.8246 92.6367C88.8684 78.1842 95.2343 63.0084 95.2343 48.75C95.2229 38.3107 91.2437 28.3024 84.1696 20.9207C77.0955 13.539 67.5042 9.38682 57.4999 9.375ZM74.1675 90.1099C69.1487 96.1157 63.5648 101.581 57.4999 106.423C51.435 101.581 45.8511 96.1157 40.8323 90.1099C32.8613 80.5293 23.3593 65.5765 23.3593 48.75C23.3593 39.3017 26.9562 30.2403 33.3588 23.5593C39.7614 16.8783 48.4452 13.125 57.4999 13.125C66.5545 13.125 75.2383 16.8783 81.6409 23.5593C88.0436 30.2403 91.6405 39.3017 91.6405 48.75C91.6405 65.5765 82.1385 80.5293 74.1675 90.1099Z" fill="white"/>
</svg>
